<svg id="burst-tablet" xmlns="http://www.w3.org/2000/svg" xmlns:xlink="http://www.w3.org/1999/xlink" width="870.09" height="691.228" viewBox="0 0 870.09 691.228">
  <defs>
    <linearGradient id="linear-gradient" x1="-0.098" y1="0.174" x2="0.998" y2="0.507" gradientUnits="objectBoundingBox">
      <stop offset="0" stop-color="#ef37a4"/>
      <stop offset="1" stop-color="#ff7f02"/>
    </linearGradient>
  </defs>
  <path id="burst-tablet-2" data-name="burst-tablet" d="M485.94,496.837c70.274-8.641,135.824,38.993,148.321,109.534A134.008,134.008,0,0,1,386.1,696.51a196.5,196.5,0,0,1-60.855,21.525c-107.129,18.96-209.362-52.5-228.326-159.608s52.508-209.309,159.637-228.269S465.9,382.64,484.867,489.75C485.287,492.113,485.613,494.475,485.94,496.837ZM767.379,57.026c17.673,99.852-48.949,195.12-148.8,212.79C518.705,287.5,423.42,220.892,405.731,121.04,388.057,21.2,454.679-74.079,554.55-91.75,654.4-109.436,749.689-42.811,767.379,57.026ZM541.654,413.432A52.833,52.833,0,1,1,584.478,352.2,52.837,52.837,0,0,1,541.654,413.432Z" transform="translate(108.021 783.433) rotate(-91)" fill="url(#linear-gradient)"/>
</svg>
