<svg id="facebook-icon" xmlns="http://www.w3.org/2000/svg" width="40" height="40" viewBox="0 0 40 40">
  <path id="facebook-icon-2" data-name="facebook-icon" d="M40.364,4H7.636A3.635,3.635,0,0,0,4,7.636V40.364A3.635,3.635,0,0,0,7.636,44H25.818V27.636H20.364V22.182h5.455V19.253c0-5.545,2.7-7.98,7.311-7.98a26.685,26.685,0,0,1,3.927.238v5.216H33.913c-1.956,0-2.64,1.033-2.64,3.124v2.331h5.735l-.778,5.455H31.273V44h9.091A3.635,3.635,0,0,0,44,40.364V7.636A3.637,3.637,0,0,0,40.364,4Z" transform="translate(-4 -4)" fill="#efeff4"/>
</svg>
