<svg xmlns="http://www.w3.org/2000/svg" xmlns:xlink="http://www.w3.org/1999/xlink" width="290" height="91" viewBox="0 0 290 91">
  <defs>
    <filter id="Rectangle_2" x="0" y="0" width="290" height="91" filterUnits="userSpaceOnUse">
      <feOffset dy="8" input="SourceAlpha"/>
      <feGaussianBlur stdDeviation="5" result="blur"/>
      <feFlood flood-color="#7e39fb" flood-opacity="0.2"/>
      <feComposite operator="in" in2="blur"/>
      <feComposite in="SourceGraphic"/>
    </filter>
  </defs>
  <g id="hover-tif-button" transform="translate(15 7)">
    <g transform="matrix(1, 0, 0, 1, -15, -7)" filter="url(#Rectangle_2)">
      <rect id="Rectangle_2-2" data-name="Rectangle 2" width="260" height="61" rx="30.5" transform="translate(15 7)" fill="#7e39fb"/>
    </g>
    <path id="Path_6" data-name="Path 6" d="M74.335,9a1.848,1.848,0,0,1,1.32.48,1.65,1.65,0,0,1,.51,1.26,1.6,1.6,0,0,1-.51,1.245,1.883,1.883,0,0,1-1.32.465h-4.71V28.17a1.7,1.7,0,0,1-.57,1.305,2,2,0,0,1-1.41.525,1.9,1.9,0,0,1-1.38-.525,1.746,1.746,0,0,1-.54-1.305V12.45h-4.71a1.848,1.848,0,0,1-1.32-.48,1.65,1.65,0,0,1-.51-1.26,1.592,1.592,0,0,1,.525-1.23A1.861,1.861,0,0,1,61.015,9Zm11.22,4.65a2.294,2.294,0,0,1,1.515.51,1.521,1.521,0,0,1,.615,1.2,1.859,1.859,0,0,1-.48,1.4,1.583,1.583,0,0,1-1.14.465,2.993,2.993,0,0,1-1.02-.21q-.09-.03-.4-.12a2.447,2.447,0,0,0-.675-.09,2.666,2.666,0,0,0-1.5.48,3.5,3.5,0,0,0-1.185,1.455,5.357,5.357,0,0,0-.465,2.325v7.11a1.8,1.8,0,0,1-.51,1.305,1.847,1.847,0,0,1-2.58,0,1.8,1.8,0,0,1-.51-1.305V15.78a1.8,1.8,0,0,1,.51-1.305,1.847,1.847,0,0,1,2.58,0,1.8,1.8,0,0,1,.51,1.305v.39a4.545,4.545,0,0,1,1.98-1.875A6.087,6.087,0,0,1,85.555,13.65Zm16.59.3a1.722,1.722,0,0,1,1.29.525,1.8,1.8,0,0,1,.51,1.305V28.53q0,3.9-2.1,5.685A8.372,8.372,0,0,1,96.235,36a13.608,13.608,0,0,1-2.085-.165,7.821,7.821,0,0,1-1.725-.435q-1.47-.63-1.47-1.74a1.541,1.541,0,0,1,.09-.48,1.859,1.859,0,0,1,.615-1.005,1.49,1.49,0,0,1,.945-.345,1.791,1.791,0,0,1,.57.09q.21.09.735.3a7.564,7.564,0,0,0,1.11.345,5.387,5.387,0,0,0,1.215.135,4.551,4.551,0,0,0,3.135-.915,4.093,4.093,0,0,0,1.005-3.135v-.3a5.85,5.85,0,0,1-4.86,1.95,5.177,5.177,0,0,1-2.76-.735,4.964,4.964,0,0,1-1.86-2.04,6.524,6.524,0,0,1-.66-2.985V15.78a1.8,1.8,0,0,1,.51-1.305,1.847,1.847,0,0,1,2.58,0,1.8,1.8,0,0,1,.51,1.305v7.68a3.737,3.737,0,0,0,.825,2.715A3.273,3.273,0,0,0,97.075,27a3.143,3.143,0,0,0,2.415-.915,3.7,3.7,0,0,0,.855-2.625V15.78a1.8,1.8,0,0,1,.51-1.305A1.722,1.722,0,0,1,102.145,13.95Zm17.49,14.22a1.8,1.8,0,0,1-.51,1.305,1.847,1.847,0,0,1-2.58,0,1.8,1.8,0,0,1-.51-1.305V15.78a1.8,1.8,0,0,1,.51-1.305,1.847,1.847,0,0,1,2.58,0,1.8,1.8,0,0,1,.51,1.305ZM117.805,12a2.383,2.383,0,0,1-1.44-.33,1.41,1.41,0,0,1-.42-1.17V9.93a1.36,1.36,0,0,1,.45-1.17,3.372,3.372,0,0,1,2.91,0,1.41,1.41,0,0,1,.42,1.17v.57a1.378,1.378,0,0,1-.435,1.185A2.62,2.62,0,0,1,117.805,12Zm13.26,14.61a1,1,0,0,1,.765.4,1.586,1.586,0,0,1,.345,1.065,1.6,1.6,0,0,1-.885,1.365,3.677,3.677,0,0,1-1.995.555,5.816,5.816,0,0,1-3.135-.8q-1.275-.8-1.275-3.375V17.55H123.5a1.64,1.64,0,0,1-1.68-1.68,1.543,1.543,0,0,1,.48-1.155,1.656,1.656,0,0,1,1.2-.465h1.38V12.33a1.794,1.794,0,0,1,1.83-1.83,1.687,1.687,0,0,1,1.26.525,1.8,1.8,0,0,1,.51,1.305v1.92h2.13a1.64,1.64,0,0,1,1.68,1.68,1.543,1.543,0,0,1-.48,1.155,1.656,1.656,0,0,1-1.2.465h-2.13v8.13a1.148,1.148,0,0,0,.33.915,1.331,1.331,0,0,0,.9.285,2.574,2.574,0,0,0,.66-.12A1.792,1.792,0,0,1,131.065,26.61Zm20.64-15.63a1.653,1.653,0,0,0-1.44.585,2.141,2.141,0,0,0-.42,1.275v1.41h2.73a1.656,1.656,0,0,1,1.2.465,1.7,1.7,0,0,1,0,2.37,1.656,1.656,0,0,1-1.2.465h-2.73V28.17a1.8,1.8,0,0,1-.51,1.305,1.847,1.847,0,0,1-2.58,0,1.8,1.8,0,0,1-.51-1.305V17.55h-1.62a1.656,1.656,0,0,1-1.2-.465,1.7,1.7,0,0,1,0-2.37,1.656,1.656,0,0,1,1.2-.465h1.62V12.87a4.726,4.726,0,0,1,1.545-3.66,6.385,6.385,0,0,1,4.455-1.41,3.98,3.98,0,0,1,1.935.45,1.474,1.474,0,0,1,.825,1.38,1.646,1.646,0,0,1-.42,1.17,1.343,1.343,0,0,1-1.02.45,1.762,1.762,0,0,1-.315-.03l-.345-.06A5.127,5.127,0,0,0,151.705,10.98Zm13.14,2.67a2.294,2.294,0,0,1,1.515.51,1.521,1.521,0,0,1,.615,1.2,1.859,1.859,0,0,1-.48,1.4,1.583,1.583,0,0,1-1.14.465,2.993,2.993,0,0,1-1.02-.21q-.09-.03-.4-.12a2.447,2.447,0,0,0-.675-.09,2.666,2.666,0,0,0-1.5.48,3.5,3.5,0,0,0-1.185,1.455,5.357,5.357,0,0,0-.465,2.325v7.11a1.8,1.8,0,0,1-.51,1.305,1.847,1.847,0,0,1-2.58,0,1.8,1.8,0,0,1-.51-1.305V15.78a1.8,1.8,0,0,1,.51-1.305,1.847,1.847,0,0,1,2.58,0,1.8,1.8,0,0,1,.51,1.305v.39a4.545,4.545,0,0,1,1.98-1.875A6.087,6.087,0,0,1,164.845,13.65Zm18.42,7.95a1.54,1.54,0,0,1-.57,1.17,1.908,1.908,0,0,1-1.26.45h-9.9a4.524,4.524,0,0,0,1.65,2.775A4.613,4.613,0,0,0,176.1,27a6.449,6.449,0,0,0,1.92-.225,5,5,0,0,0,1.1-.48q.405-.255.555-.345a2.289,2.289,0,0,1,1.02-.27,1.473,1.473,0,0,1,1.08.45,1.439,1.439,0,0,1,.45,1.05,1.872,1.872,0,0,1-.84,1.47,7.168,7.168,0,0,1-2.25,1.17,9.3,9.3,0,0,1-7.245-.57,7.329,7.329,0,0,1-2.895-2.9,8.442,8.442,0,0,1-1.02-4.155,9.2,9.2,0,0,1,1.08-4.53,7.668,7.668,0,0,1,2.85-2.985,7.366,7.366,0,0,1,3.78-1.035,7.008,7.008,0,0,1,3.735,1.08,8.073,8.073,0,0,1,2.805,2.91A7.823,7.823,0,0,1,183.265,21.6Zm-7.59-4.65a3.724,3.724,0,0,0-4.11,3.27h7.86v-.21a3.1,3.1,0,0,0-1.23-2.16A3.893,3.893,0,0,0,175.675,16.95Zm24.99,4.65a1.54,1.54,0,0,1-.57,1.17,1.908,1.908,0,0,1-1.26.45h-9.9a4.524,4.524,0,0,0,1.65,2.775A4.613,4.613,0,0,0,193.495,27a6.449,6.449,0,0,0,1.92-.225,5,5,0,0,0,1.1-.48q.405-.255.555-.345a2.289,2.289,0,0,1,1.02-.27,1.473,1.473,0,0,1,1.08.45,1.439,1.439,0,0,1,.45,1.05,1.872,1.872,0,0,1-.84,1.47,7.168,7.168,0,0,1-2.25,1.17,9.3,9.3,0,0,1-7.245-.57,7.329,7.329,0,0,1-2.895-2.9,8.442,8.442,0,0,1-1.02-4.155,9.2,9.2,0,0,1,1.08-4.53,7.668,7.668,0,0,1,2.85-2.985,7.366,7.366,0,0,1,3.78-1.035,7.008,7.008,0,0,1,3.735,1.08,8.073,8.073,0,0,1,2.805,2.91A7.823,7.823,0,0,1,200.665,21.6Zm-7.59-4.65a3.724,3.724,0,0,0-4.11,3.27h7.86v-.21a3.1,3.1,0,0,0-1.23-2.16A3.893,3.893,0,0,0,193.075,16.95Z" transform="translate(-0.185 10.2)" fill="#fff"/>
  </g>
</svg>
