<svg xmlns="http://www.w3.org/2000/svg" xmlns:xlink="http://www.w3.org/1999/xlink" width="428" height="91" viewBox="0 0 428 91">
  <defs>
    <filter id="Rectangle_2" x="0" y="0" width="428" height="91" filterUnits="userSpaceOnUse">
      <feOffset dy="8" input="SourceAlpha"/>
      <feGaussianBlur stdDeviation="5" result="blur"/>
      <feFlood flood-color="#7e39fb" flood-opacity="0.2"/>
      <feComposite operator="in" in2="blur"/>
      <feComposite in="SourceGraphic"/>
    </filter>
  </defs>
  <g id="hover-uym-button" transform="translate(15 7)">
    <g transform="matrix(1, 0, 0, 1, -15, -7)" filter="url(#Rectangle_2)">
      <rect id="Rectangle_2-2" data-name="Rectangle 2" width="398" height="61" rx="30.5" transform="translate(15 7)" fill="#7e39fb"/>
    </g>
    <path id="Path_8" data-name="Path 8" d="M81.655,8.97a1.65,1.65,0,0,1,1.26.51,1.848,1.848,0,0,1,.48,1.32V21.66a9.042,9.042,0,0,1-1.05,4.41,7.575,7.575,0,0,1-2.94,3,9.21,9.21,0,0,1-8.655,0,7.547,7.547,0,0,1-2.955-3,9.042,9.042,0,0,1-1.05-4.41V10.8a1.746,1.746,0,0,1,.54-1.305,1.9,1.9,0,0,1,1.38-.525,1.818,1.818,0,0,1,1.8,1.83V21.66a5.159,5.159,0,0,0,.63,2.565A4.4,4.4,0,0,0,72.79,25.95a4.6,4.6,0,0,0,2.295.6,5.055,5.055,0,0,0,2.415-.6,4.588,4.588,0,0,0,1.8-1.725,4.888,4.888,0,0,0,.675-2.565V10.8a1.921,1.921,0,0,1,.45-1.32A1.556,1.556,0,0,1,81.655,8.97ZM95.9,13.65a6.859,6.859,0,0,1,3.75,1.065,7.467,7.467,0,0,1,2.655,2.955,9.221,9.221,0,0,1,.975,4.29,9.433,9.433,0,0,1-.96,4.305,7.376,7.376,0,0,1-2.625,2.97A6.682,6.682,0,0,1,96.025,30.3a6.433,6.433,0,0,1-2.715-.585,7.2,7.2,0,0,1-2.115-1.425v5.88a1.8,1.8,0,0,1-.51,1.3,1.722,1.722,0,0,1-1.29.525,1.748,1.748,0,0,1-1.29-.51,1.786,1.786,0,0,1-.51-1.32V15.78a1.8,1.8,0,0,1,.51-1.305,1.847,1.847,0,0,1,2.58,0,1.8,1.8,0,0,1,.51,1.305v.12a6.211,6.211,0,0,1,2.01-1.575A5.748,5.748,0,0,1,95.9,13.65ZM95.455,27a3.956,3.956,0,0,0,3.15-1.44,5.349,5.349,0,0,0,1.23-3.6,5.332,5.332,0,0,0-1.215-3.585,3.962,3.962,0,0,0-3.165-1.425,4.006,4.006,0,0,0-3.18,1.425,5.291,5.291,0,0,0-1.23,3.585,5.349,5.349,0,0,0,1.23,3.6A3.988,3.988,0,0,0,95.455,27Zm14.73,1.17a1.794,1.794,0,0,1-1.83,1.83,1.687,1.687,0,0,1-1.26-.525,1.8,1.8,0,0,1-.51-1.305V9.63a1.794,1.794,0,0,1,1.83-1.83,1.687,1.687,0,0,1,1.26.525,1.8,1.8,0,0,1,.51,1.305Zm19.32-6.18a8.574,8.574,0,0,1-1.08,4.305,7.63,7.63,0,0,1-2.955,2.955,8.657,8.657,0,0,1-8.265,0,7.66,7.66,0,0,1-2.94-2.955,8.574,8.574,0,0,1-1.08-4.305,8.574,8.574,0,0,1,1.08-4.305,7.767,7.767,0,0,1,2.94-2.97,8.55,8.55,0,0,1,8.265,0,7.736,7.736,0,0,1,2.955,2.97A8.574,8.574,0,0,1,129.5,21.99Zm-3.6,0a5.5,5.5,0,0,0-.615-2.625,4.525,4.525,0,0,0-1.65-1.785,4.5,4.5,0,0,0-4.59,0,4.525,4.525,0,0,0-1.65,1.785,5.5,5.5,0,0,0-.615,2.625,5.41,5.41,0,0,0,.615,2.61,4.55,4.55,0,0,0,1.65,1.77,4.5,4.5,0,0,0,4.59,0,4.55,4.55,0,0,0,1.65-1.77A5.41,5.41,0,0,0,125.9,21.99Zm19.59-8.34a1.748,1.748,0,0,1,1.29.51,1.786,1.786,0,0,1,.51,1.32V28.17a1.8,1.8,0,0,1-.51,1.305,1.722,1.722,0,0,1-1.29.525,1.7,1.7,0,0,1-1.275-.51,1.887,1.887,0,0,1-.525-1.29,6.5,6.5,0,0,1-4.71,2.1,6.859,6.859,0,0,1-3.75-1.065,7.467,7.467,0,0,1-2.655-2.955,9.221,9.221,0,0,1-.975-4.29,9.433,9.433,0,0,1,.96-4.305,7.376,7.376,0,0,1,2.625-2.97,6.682,6.682,0,0,1,3.675-1.065,6.949,6.949,0,0,1,2.7.525,7.09,7.09,0,0,1,2.13,1.335v-.03a1.8,1.8,0,0,1,.51-1.305A1.722,1.722,0,0,1,145.495,13.65ZM139.435,27a4.006,4.006,0,0,0,3.18-1.425,5.291,5.291,0,0,0,1.23-3.585,5.349,5.349,0,0,0-1.23-3.6,4.2,4.2,0,0,0-6.33,0,5.349,5.349,0,0,0-1.23,3.6,5.332,5.332,0,0,0,1.215,3.585A3.962,3.962,0,0,0,139.435,27Zm24.75-19.2a1.748,1.748,0,0,1,1.29.51,1.786,1.786,0,0,1,.51,1.32V28.17a1.8,1.8,0,0,1-.51,1.305,1.722,1.722,0,0,1-1.29.525,1.7,1.7,0,0,1-1.275-.51,1.887,1.887,0,0,1-.525-1.29,6.5,6.5,0,0,1-4.71,2.1,6.859,6.859,0,0,1-3.75-1.065,7.467,7.467,0,0,1-2.655-2.955,9.221,9.221,0,0,1-.975-4.29,9.433,9.433,0,0,1,.96-4.305,7.376,7.376,0,0,1,2.625-2.97,6.682,6.682,0,0,1,3.675-1.065,6.949,6.949,0,0,1,2.7.525,7.09,7.09,0,0,1,2.13,1.335V9.63a1.8,1.8,0,0,1,.51-1.305A1.722,1.722,0,0,1,164.185,7.8ZM158.125,27a4.006,4.006,0,0,0,3.18-1.425,5.291,5.291,0,0,0,1.23-3.585,5.349,5.349,0,0,0-1.23-3.6,4.2,4.2,0,0,0-6.33,0,5.349,5.349,0,0,0-1.23,3.6,5.332,5.332,0,0,0,1.215,3.585A3.962,3.962,0,0,0,158.125,27Zm32.07-13.05a1.722,1.722,0,0,1,1.29.525,1.8,1.8,0,0,1,.51,1.305V28.53q0,3.9-2.1,5.685A8.372,8.372,0,0,1,184.285,36a13.608,13.608,0,0,1-2.085-.165,7.821,7.821,0,0,1-1.725-.435Q179,34.77,179,33.66a1.541,1.541,0,0,1,.09-.48,1.86,1.86,0,0,1,.615-1.005,1.49,1.49,0,0,1,.945-.345,1.791,1.791,0,0,1,.57.09q.21.09.735.3a7.563,7.563,0,0,0,1.11.345,5.387,5.387,0,0,0,1.215.135,4.551,4.551,0,0,0,3.135-.915,4.093,4.093,0,0,0,1-3.135v-.3a5.85,5.85,0,0,1-4.86,1.95,5.177,5.177,0,0,1-2.76-.735,4.964,4.964,0,0,1-1.86-2.04,6.524,6.524,0,0,1-.66-2.985V15.78a1.8,1.8,0,0,1,.51-1.305,1.847,1.847,0,0,1,2.58,0,1.8,1.8,0,0,1,.51,1.305v7.68a3.737,3.737,0,0,0,.825,2.715,3.273,3.273,0,0,0,2.415.825,3.143,3.143,0,0,0,2.415-.915,3.7,3.7,0,0,0,.855-2.625V15.78a1.8,1.8,0,0,1,.51-1.305A1.722,1.722,0,0,1,190.195,13.95Zm20.97,8.04a8.574,8.574,0,0,1-1.08,4.305,7.63,7.63,0,0,1-2.955,2.955,8.657,8.657,0,0,1-8.265,0,7.66,7.66,0,0,1-2.94-2.955,8.574,8.574,0,0,1-1.08-4.305,8.574,8.574,0,0,1,1.08-4.305,7.767,7.767,0,0,1,2.94-2.97,8.55,8.55,0,0,1,8.265,0,7.736,7.736,0,0,1,2.955,2.97A8.574,8.574,0,0,1,211.165,21.99Zm-3.6,0a5.5,5.5,0,0,0-.615-2.625,4.525,4.525,0,0,0-1.65-1.785,4.5,4.5,0,0,0-4.59,0,4.525,4.525,0,0,0-1.65,1.785,5.5,5.5,0,0,0-.615,2.625,5.41,5.41,0,0,0,.615,2.61,4.551,4.551,0,0,0,1.65,1.77,4.5,4.5,0,0,0,4.59,0,4.551,4.551,0,0,0,1.65-1.77A5.41,5.41,0,0,0,207.565,21.99Zm18.51-8.04a1.722,1.722,0,0,1,1.29.525,1.8,1.8,0,0,1,.51,1.305V23.4a6.953,6.953,0,0,1-1.785,5.07,7.959,7.959,0,0,1-10.155,0,6.988,6.988,0,0,1-1.77-5.07V15.78a1.8,1.8,0,0,1,.51-1.305,1.847,1.847,0,0,1,2.58,0,1.8,1.8,0,0,1,.51,1.305V23.4a3.916,3.916,0,0,0,.81,2.715A3.133,3.133,0,0,0,221,27a3.174,3.174,0,0,0,2.46-.885,3.916,3.916,0,0,0,.81-2.715V15.78a1.8,1.8,0,0,1,.51-1.305A1.722,1.722,0,0,1,226.075,13.95Zm14.04-.3a2.294,2.294,0,0,1,1.515.51,1.521,1.521,0,0,1,.615,1.2,1.859,1.859,0,0,1-.48,1.4,1.583,1.583,0,0,1-1.14.465,2.993,2.993,0,0,1-1.02-.21q-.09-.03-.4-.12a2.447,2.447,0,0,0-.675-.09,2.666,2.666,0,0,0-1.5.48,3.5,3.5,0,0,0-1.185,1.455,5.357,5.357,0,0,0-.465,2.325v7.11a1.8,1.8,0,0,1-.51,1.305,1.847,1.847,0,0,1-2.58,0,1.8,1.8,0,0,1-.51-1.305V15.78a1.8,1.8,0,0,1,.51-1.305,1.847,1.847,0,0,1,2.58,0,1.8,1.8,0,0,1,.51,1.305v.39a4.545,4.545,0,0,1,1.98-1.875A6.087,6.087,0,0,1,240.115,13.65Zm31.59,0q2.97,0,4.11,1.815a9.42,9.42,0,0,1,1.14,5.025v7.68a1.8,1.8,0,0,1-.51,1.305,1.847,1.847,0,0,1-2.58,0,1.8,1.8,0,0,1-.51-1.305V20.49a4.549,4.549,0,0,0-.645-2.595,2.545,2.545,0,0,0-2.265-.945,3.428,3.428,0,0,0-2.625,1.005,3.555,3.555,0,0,0-.945,2.535v7.68a1.8,1.8,0,0,1-.51,1.305,1.847,1.847,0,0,1-2.58,0,1.8,1.8,0,0,1-.51-1.305V20.49a4.549,4.549,0,0,0-.645-2.595,2.545,2.545,0,0,0-2.265-.945,3.428,3.428,0,0,0-2.625,1.005,3.555,3.555,0,0,0-.945,2.535v7.68a1.8,1.8,0,0,1-.51,1.305,1.847,1.847,0,0,1-2.58,0,1.8,1.8,0,0,1-.51-1.305V15.78a1.8,1.8,0,0,1,.51-1.305,1.847,1.847,0,0,1,2.58,0,1.8,1.8,0,0,1,.51,1.305v.48a7.326,7.326,0,0,1,2.055-1.845,5.2,5.2,0,0,1,2.775-.765q3.78,0,4.83,3.3a7.065,7.065,0,0,1,2.085-2.28A5.227,5.227,0,0,1,271.7,13.65Zm21.06.3a1.722,1.722,0,0,1,1.29.525,1.8,1.8,0,0,1,.51,1.305V23.4a6.953,6.953,0,0,1-1.785,5.07,7.959,7.959,0,0,1-10.155,0,6.988,6.988,0,0,1-1.77-5.07V15.78a1.8,1.8,0,0,1,.51-1.305,1.847,1.847,0,0,1,2.58,0,1.8,1.8,0,0,1,.51,1.305V23.4a3.916,3.916,0,0,0,.81,2.715A3.133,3.133,0,0,0,287.7,27a3.174,3.174,0,0,0,2.46-.885,3.916,3.916,0,0,0,.81-2.715V15.78a1.8,1.8,0,0,1,.51-1.305A1.722,1.722,0,0,1,292.765,13.95Zm4.77,13.56a1.458,1.458,0,0,1-.27-.9,1.706,1.706,0,0,1,1.65-1.59,1.692,1.692,0,0,1,1.2.57,6.327,6.327,0,0,0,1.875,1.38,5.59,5.59,0,0,0,2.355.45q2.34-.09,2.34-1.77a1.434,1.434,0,0,0-.8-1.32,11.22,11.22,0,0,0-2.475-.9,21.454,21.454,0,0,1-2.835-.96,5.016,5.016,0,0,1-1.89-1.455,4.031,4.031,0,0,1-.795-2.625,3.972,3.972,0,0,1,.825-2.505,5.43,5.43,0,0,1,2.16-1.65,6.986,6.986,0,0,1,2.835-.585,8.713,8.713,0,0,1,3.06.57,5.322,5.322,0,0,1,2.4,1.68,1.668,1.668,0,0,1,.39,1.08,1.393,1.393,0,0,1-.57,1.14,1.511,1.511,0,0,1-.96.33,1.462,1.462,0,0,1-1.08-.42,3.811,3.811,0,0,0-1.395-1.05,4.613,4.613,0,0,0-1.935-.39q-2.28,0-2.28,1.65a1.412,1.412,0,0,0,.42,1.065,2.87,2.87,0,0,0,1.065.63q.645.225,1.815.555a19.838,19.838,0,0,1,2.7.93,4.634,4.634,0,0,1,1.83,1.47,4.212,4.212,0,0,1,.75,2.61,4,4,0,0,1-.87,2.565,5.507,5.507,0,0,1-2.235,1.665,7.214,7.214,0,0,1-2.8.57,10.16,10.16,0,0,1-3.69-.66A6.132,6.132,0,0,1,297.535,27.51Zm18.78.66a1.8,1.8,0,0,1-.51,1.305,1.847,1.847,0,0,1-2.58,0,1.8,1.8,0,0,1-.51-1.305V15.78a1.8,1.8,0,0,1,.51-1.305,1.847,1.847,0,0,1,2.58,0,1.8,1.8,0,0,1,.51,1.305ZM314.485,12a2.383,2.383,0,0,1-1.44-.33,1.41,1.41,0,0,1-.42-1.17V9.93a1.36,1.36,0,0,1,.45-1.17,3.372,3.372,0,0,1,2.91,0,1.41,1.41,0,0,1,.42,1.17v.57a1.378,1.378,0,0,1-.435,1.185A2.62,2.62,0,0,1,314.485,12Zm12.51,1.65a9.083,9.083,0,0,1,4.11.795,2.383,2.383,0,0,1,1.56,2.115,1.812,1.812,0,0,1-.39,1.155,1.237,1.237,0,0,1-1.02.495,1.916,1.916,0,0,1-.78-.135,2.8,2.8,0,0,1-.585-.36,4.174,4.174,0,0,0-.555-.375,3.763,3.763,0,0,0-.885-.27,4.936,4.936,0,0,0-.945-.12,4.536,4.536,0,0,0-3.525,1.4A5.192,5.192,0,0,0,322.7,21.99a5.14,5.14,0,0,0,1.29,3.585,4.252,4.252,0,0,0,3.3,1.425,5.105,5.105,0,0,0,2.19-.36,4.056,4.056,0,0,0,.495-.315,3.4,3.4,0,0,1,.585-.345,1.622,1.622,0,0,1,.66-.12,1.519,1.519,0,0,1,1.185.48,1.761,1.761,0,0,1,.435,1.23,1.737,1.737,0,0,1-.84,1.35,6.543,6.543,0,0,1-2.22,1,11.17,11.17,0,0,1-2.94.375,7.6,7.6,0,0,1-4.065-1.08,7.263,7.263,0,0,1-2.715-2.985,9.3,9.3,0,0,1-.96-4.245,9.06,9.06,0,0,1,1.005-4.32,7.4,7.4,0,0,1,2.8-2.955A7.859,7.859,0,0,1,326.995,13.65Z" transform="translate(-0.745 10.2)" fill="#efeff4"/>
  </g>
</svg>
