<svg id="instagram-iocn" xmlns="http://www.w3.org/2000/svg" width="40" height="40" viewBox="0 0 40 40">
  <path id="instagram-iocn-2" data-name="instagram-iocn" d="M14.663,3A11.681,11.681,0,0,0,3,14.67V31.337A11.68,11.68,0,0,0,14.67,43H31.337A11.681,11.681,0,0,0,43,31.33V14.663A11.681,11.681,0,0,0,31.33,3Zm20,6.667A1.667,1.667,0,1,1,33,11.333,1.667,1.667,0,0,1,34.667,9.667ZM23,13A10,10,0,1,1,13,23,10.01,10.01,0,0,1,23,13Zm0,3.333A6.667,6.667,0,1,0,29.667,23,6.667,6.667,0,0,0,23,16.333Z" transform="translate(-3 -3)" fill="#efeff4"/>
</svg>
