<svg id="wordpress-icon" xmlns="http://www.w3.org/2000/svg" width="40" height="40" viewBox="0 0 40 40">
  <path id="wordpress" d="M23,3A20,20,0,1,0,43,23,20,20,0,0,0,23,3ZM38.14,16.072c0,.16.03.3.03.463a16.225,16.225,0,0,1-1.305,6.145L31.887,37.075a16.539,16.539,0,0,1-3.39,1.64L23.3,24.5,18.318,38.983a16.629,16.629,0,0,1-3.055-1.237L7.578,16.7a16.716,16.716,0,0,1,1.68-3.113c.17,0,.362.008.512.008,1.793,0,4.572-.218,4.572-.218a.71.71,0,0,1,.11,1.415s-.93.108-1.963.163l6.247,18.585L22.488,22.28l-2.67-7.327c-.927-.052-1.8-.16-1.8-.16a.71.71,0,0,1,.108-1.415s2.833.218,4.517.218c1.793,0,4.572-.218,4.572-.218a.71.71,0,0,1,.11,1.415s-.932.108-1.963.163l6.2,18.443,1.713-5.723a15.946,15.946,0,0,0,1.3-5.545,9.008,9.008,0,0,0-1.415-4.73c-.868-1.415-1.687-2.61-1.687-4.025a3.006,3.006,0,0,1,2.385-2.99A16.762,16.762,0,0,1,38.14,16.072Z" transform="translate(-3 -3)" fill="#efeff4"/>
</svg>
