<svg xmlns="http://www.w3.org/2000/svg" xmlns:xlink="http://www.w3.org/1999/xlink" width="2234.823" height="2277.669" viewBox="0 0 2234.823 2277.669">
  <defs>
    <linearGradient id="linear-gradient" x1="0.218" y1="0.942" x2="0.845" y2="0.222" gradientUnits="objectBoundingBox">
      <stop offset="0" stop-color="#ff377e"/>
      <stop offset="1" stop-color="#ff7f02"/>
    </linearGradient>
  </defs>
  <path id="burst-bg" d="M973.467,67.99c280.823,0,508.493,227.63,508.493,508.4S1254.29,1084.78,973.467,1084.78a506.5,506.5,0,0,1-231.779-55.93,184.036,184.036,0,0,1,25.21,93c0,102.34-82.995,185.32-185.359,185.32-96.8,0-176.189-74.16-184.581-168.75a345.385,345.385,0,0,1-53.784,4.6c-190.175,0-344.3-154.1-344.3-344.207,0-190.14,154.13-344.242,344.3-344.242A343.088,343.088,0,0,1,474.147,480.52C519.009,245.6,725.436,67.99,973.467,67.99ZM682.157,1476.65c0-178.39,144.641-323.04,323.093-323.04s323.1,144.65,323.1,323.04c0,178.42-144.64,323.03-323.1,323.03S682.157,1655.07,682.157,1476.65Z" transform="translate(-40.968 858.807) rotate(-38)" fill="url(#linear-gradient)"/>
</svg>
