<svg xmlns="http://www.w3.org/2000/svg" xmlns:xlink="http://www.w3.org/1999/xlink" width="428" height="91" viewBox="0 0 428 91">
  <defs>
    <filter id="Rectangle_2" x="0" y="0" width="428" height="91" filterUnits="userSpaceOnUse">
      <feOffset dy="8" input="SourceAlpha"/>
      <feGaussianBlur stdDeviation="5" result="blur"/>
      <feFlood flood-color="#007aff" flood-opacity="0.2"/>
      <feComposite operator="in" in2="blur"/>
      <feComposite in="SourceGraphic"/>
    </filter>
  </defs>
  <g id="mfa-button" transform="translate(15 7)">
    <g transform="matrix(1, 0, 0, 1, -15, -7)" filter="url(#Rectangle_2)">
      <rect id="Rectangle_2-2" data-name="Rectangle 2" width="398" height="61" rx="30.5" transform="translate(15 7)" fill="#007aff"/>
    </g>
    <path id="Path_3" data-name="Path 3" d="M102.61,8.97a1.837,1.837,0,0,1,1.305.525,1.723,1.723,0,0,1,.555,1.305V28.17A1.772,1.772,0,0,1,102.61,30a1.876,1.876,0,0,1-1.365-.51,1.759,1.759,0,0,1-.525-1.32V16.08l-4.95,7.56a2.559,2.559,0,0,1-.69.585,1.393,1.393,0,0,1-.81.195,1.336,1.336,0,0,1-.78-.195,2.558,2.558,0,0,1-.69-.585l-4.95-7.83V28.17a1.848,1.848,0,0,1-.48,1.32,1.65,1.65,0,0,1-1.26.51,1.592,1.592,0,0,1-1.23-.525,1.861,1.861,0,0,1-.48-1.305V10.8a1.737,1.737,0,0,1,.555-1.29,1.846,1.846,0,0,1,1.335-.54,2,2,0,0,1,.9.225,1.741,1.741,0,0,1,.69.585l6.54,10.05,6.72-10.05a1.824,1.824,0,0,1,.645-.585A1.681,1.681,0,0,1,102.61,8.97Zm21.48,13.02a8.574,8.574,0,0,1-1.08,4.305,7.63,7.63,0,0,1-2.955,2.955,8.657,8.657,0,0,1-8.265,0,7.66,7.66,0,0,1-2.94-2.955,8.574,8.574,0,0,1-1.08-4.305,8.574,8.574,0,0,1,1.08-4.305,7.767,7.767,0,0,1,2.94-2.97,8.55,8.55,0,0,1,8.265,0,7.736,7.736,0,0,1,2.955,2.97A8.574,8.574,0,0,1,124.09,21.99Zm-3.6,0a5.5,5.5,0,0,0-.615-2.625,4.525,4.525,0,0,0-1.65-1.785,4.5,4.5,0,0,0-4.59,0,4.525,4.525,0,0,0-1.65,1.785,5.5,5.5,0,0,0-.615,2.625,5.41,5.41,0,0,0,.615,2.61,4.55,4.55,0,0,0,1.65,1.77,4.5,4.5,0,0,0,4.59,0,4.55,4.55,0,0,0,1.65-1.77A5.41,5.41,0,0,0,120.49,21.99Zm22.02,0a8.574,8.574,0,0,1-1.08,4.305,7.63,7.63,0,0,1-2.955,2.955,8.657,8.657,0,0,1-8.265,0,7.66,7.66,0,0,1-2.94-2.955,8.574,8.574,0,0,1-1.08-4.305,8.574,8.574,0,0,1,1.08-4.305,7.767,7.767,0,0,1,2.94-2.97,8.55,8.55,0,0,1,8.265,0,7.736,7.736,0,0,1,2.955,2.97A8.574,8.574,0,0,1,142.51,21.99Zm-3.6,0a5.5,5.5,0,0,0-.615-2.625,4.525,4.525,0,0,0-1.65-1.785,4.5,4.5,0,0,0-4.59,0,4.525,4.525,0,0,0-1.65,1.785,5.5,5.5,0,0,0-.615,2.625,5.41,5.41,0,0,0,.615,2.61,4.55,4.55,0,0,0,1.65,1.77,4.5,4.5,0,0,0,4.59,0,4.55,4.55,0,0,0,1.65-1.77A5.41,5.41,0,0,0,138.91,21.99ZM158.5,7.8a1.748,1.748,0,0,1,1.29.51,1.786,1.786,0,0,1,.51,1.32V28.17a1.8,1.8,0,0,1-.51,1.305A1.722,1.722,0,0,1,158.5,30a1.7,1.7,0,0,1-1.275-.51,1.887,1.887,0,0,1-.525-1.29,6.5,6.5,0,0,1-4.71,2.1,6.859,6.859,0,0,1-3.75-1.065,7.467,7.467,0,0,1-2.655-2.955,9.221,9.221,0,0,1-.975-4.29,9.433,9.433,0,0,1,.96-4.305,7.376,7.376,0,0,1,2.625-2.97,6.682,6.682,0,0,1,3.675-1.065,6.949,6.949,0,0,1,2.7.525,7.09,7.09,0,0,1,2.13,1.335V9.63a1.8,1.8,0,0,1,.51-1.305A1.722,1.722,0,0,1,158.5,7.8ZM152.44,27a4.006,4.006,0,0,0,3.18-1.425,5.291,5.291,0,0,0,1.23-3.585,5.349,5.349,0,0,0-1.23-3.6,4.2,4.2,0,0,0-6.33,0,5.349,5.349,0,0,0-1.23,3.6,5.332,5.332,0,0,0,1.215,3.585A3.962,3.962,0,0,0,152.44,27Zm27.87-16.02a1.653,1.653,0,0,0-1.44.585,2.141,2.141,0,0,0-.42,1.275v1.41h2.73a1.656,1.656,0,0,1,1.2.465,1.7,1.7,0,0,1,0,2.37,1.656,1.656,0,0,1-1.2.465h-2.73V28.17a1.8,1.8,0,0,1-.51,1.305,1.847,1.847,0,0,1-2.58,0,1.8,1.8,0,0,1-.51-1.305V17.55h-1.62a1.656,1.656,0,0,1-1.2-.465,1.7,1.7,0,0,1,0-2.37,1.656,1.656,0,0,1,1.2-.465h1.62V12.87a4.726,4.726,0,0,1,1.545-3.66A6.385,6.385,0,0,1,180.85,7.8a3.98,3.98,0,0,1,1.935.45,1.474,1.474,0,0,1,.825,1.38,1.646,1.646,0,0,1-.42,1.17,1.343,1.343,0,0,1-1.02.45,1.762,1.762,0,0,1-.315-.03l-.345-.06A5.127,5.127,0,0,0,180.31,10.98Zm20.22,11.01a8.574,8.574,0,0,1-1.08,4.305A7.63,7.63,0,0,1,196.5,29.25a8.657,8.657,0,0,1-8.265,0,7.66,7.66,0,0,1-2.94-2.955,8.574,8.574,0,0,1-1.08-4.305,8.574,8.574,0,0,1,1.08-4.305,7.767,7.767,0,0,1,2.94-2.97,8.55,8.55,0,0,1,8.265,0,7.736,7.736,0,0,1,2.955,2.97A8.574,8.574,0,0,1,200.53,21.99Zm-3.6,0a5.5,5.5,0,0,0-.615-2.625,4.525,4.525,0,0,0-1.65-1.785,4.5,4.5,0,0,0-4.59,0,4.525,4.525,0,0,0-1.65,1.785,5.5,5.5,0,0,0-.615,2.625,5.41,5.41,0,0,0,.615,2.61,4.551,4.551,0,0,0,1.65,1.77,4.5,4.5,0,0,0,4.59,0,4.551,4.551,0,0,0,1.65-1.77A5.41,5.41,0,0,0,196.93,21.99Zm14.94-8.34a2.294,2.294,0,0,1,1.515.51,1.521,1.521,0,0,1,.615,1.2,1.859,1.859,0,0,1-.48,1.4,1.583,1.583,0,0,1-1.14.465,2.993,2.993,0,0,1-1.02-.21q-.09-.03-.4-.12a2.447,2.447,0,0,0-.675-.09,2.666,2.666,0,0,0-1.5.48,3.5,3.5,0,0,0-1.185,1.455,5.357,5.357,0,0,0-.465,2.325v7.11a1.8,1.8,0,0,1-.51,1.305,1.847,1.847,0,0,1-2.58,0,1.8,1.8,0,0,1-.51-1.305V15.78a1.8,1.8,0,0,1,.51-1.305,1.847,1.847,0,0,1,2.58,0,1.8,1.8,0,0,1,.51,1.305v.39a4.545,4.545,0,0,1,1.98-1.875A6.087,6.087,0,0,1,211.87,13.65Zm26.07,0a1.748,1.748,0,0,1,1.29.51,1.786,1.786,0,0,1,.51,1.32V28.17a1.8,1.8,0,0,1-.51,1.305,1.722,1.722,0,0,1-1.29.525,1.7,1.7,0,0,1-1.275-.51,1.887,1.887,0,0,1-.525-1.29,6.5,6.5,0,0,1-4.71,2.1,6.859,6.859,0,0,1-3.75-1.065,7.467,7.467,0,0,1-2.655-2.955,9.221,9.221,0,0,1-.975-4.29,9.433,9.433,0,0,1,.96-4.305,7.376,7.376,0,0,1,2.625-2.97,6.682,6.682,0,0,1,3.675-1.065,6.949,6.949,0,0,1,2.7.525,7.09,7.09,0,0,1,2.13,1.335v-.03a1.8,1.8,0,0,1,.51-1.305A1.722,1.722,0,0,1,237.94,13.65ZM231.88,27a4.006,4.006,0,0,0,3.18-1.425,5.291,5.291,0,0,0,1.23-3.585,5.349,5.349,0,0,0-1.23-3.6,4.2,4.2,0,0,0-6.33,0,5.349,5.349,0,0,0-1.23,3.6,5.332,5.332,0,0,0,1.215,3.585A3.962,3.962,0,0,0,231.88,27Zm20.1-13.35a2.294,2.294,0,0,1,1.515.51,1.521,1.521,0,0,1,.615,1.2,1.859,1.859,0,0,1-.48,1.4,1.583,1.583,0,0,1-1.14.465,2.993,2.993,0,0,1-1.02-.21q-.09-.03-.4-.12a2.447,2.447,0,0,0-.675-.09,2.666,2.666,0,0,0-1.5.48,3.5,3.5,0,0,0-1.185,1.455,5.357,5.357,0,0,0-.465,2.325v7.11a1.8,1.8,0,0,1-.51,1.305,1.847,1.847,0,0,1-2.58,0,1.8,1.8,0,0,1-.51-1.305V15.78a1.8,1.8,0,0,1,.51-1.305,1.847,1.847,0,0,1,2.58,0,1.8,1.8,0,0,1,.51,1.305v.39a4.545,4.545,0,0,1,1.98-1.875A6.087,6.087,0,0,1,251.98,13.65ZM264.4,26.61a1,1,0,0,1,.765.4,1.586,1.586,0,0,1,.345,1.065,1.6,1.6,0,0,1-.885,1.365A3.677,3.677,0,0,1,262.63,30a5.816,5.816,0,0,1-3.135-.8q-1.275-.8-1.275-3.375V17.55h-1.38a1.64,1.64,0,0,1-1.68-1.68,1.543,1.543,0,0,1,.48-1.155,1.656,1.656,0,0,1,1.2-.465h1.38V12.33a1.794,1.794,0,0,1,1.83-1.83,1.687,1.687,0,0,1,1.26.525,1.8,1.8,0,0,1,.51,1.305v1.92h2.13a1.641,1.641,0,0,1,1.68,1.68,1.543,1.543,0,0,1-.48,1.155,1.656,1.656,0,0,1-1.2.465h-2.13v8.13a1.148,1.148,0,0,0,.33.915,1.331,1.331,0,0,0,.9.285,2.574,2.574,0,0,0,.66-.12A1.792,1.792,0,0,1,264.4,26.61Zm7.92,1.56a1.8,1.8,0,0,1-.51,1.305,1.847,1.847,0,0,1-2.58,0,1.8,1.8,0,0,1-.51-1.305V15.78a1.8,1.8,0,0,1,.51-1.305,1.847,1.847,0,0,1,2.58,0,1.8,1.8,0,0,1,.51,1.305ZM270.49,12a2.383,2.383,0,0,1-1.44-.33,1.41,1.41,0,0,1-.42-1.17V9.93a1.36,1.36,0,0,1,.45-1.17,3.372,3.372,0,0,1,2.91,0,1.41,1.41,0,0,1,.42,1.17v.57a1.378,1.378,0,0,1-.435,1.185A2.62,2.62,0,0,1,270.49,12Zm4.59,15.51a1.458,1.458,0,0,1-.27-.9,1.706,1.706,0,0,1,1.65-1.59,1.692,1.692,0,0,1,1.2.57,6.327,6.327,0,0,0,1.875,1.38,5.59,5.59,0,0,0,2.355.45q2.34-.09,2.34-1.77a1.434,1.434,0,0,0-.8-1.32,11.22,11.22,0,0,0-2.475-.9,21.454,21.454,0,0,1-2.835-.96,5.016,5.016,0,0,1-1.89-1.455,4.031,4.031,0,0,1-.795-2.625,3.972,3.972,0,0,1,.825-2.505,5.43,5.43,0,0,1,2.16-1.65,6.986,6.986,0,0,1,2.835-.585,8.713,8.713,0,0,1,3.06.57,5.322,5.322,0,0,1,2.4,1.68,1.668,1.668,0,0,1,.39,1.08,1.393,1.393,0,0,1-.57,1.14,1.511,1.511,0,0,1-.96.33,1.462,1.462,0,0,1-1.08-.42,3.811,3.811,0,0,0-1.395-1.05,4.613,4.613,0,0,0-1.935-.39q-2.28,0-2.28,1.65a1.412,1.412,0,0,0,.42,1.065,2.87,2.87,0,0,0,1.065.63q.645.225,1.815.555a19.838,19.838,0,0,1,2.7.93,4.634,4.634,0,0,1,1.83,1.47,4.212,4.212,0,0,1,.75,2.61,4,4,0,0,1-.87,2.565,5.507,5.507,0,0,1-2.235,1.665,7.214,7.214,0,0,1-2.8.57,10.16,10.16,0,0,1-3.69-.66A6.132,6.132,0,0,1,275.08,27.51Zm23.13-.9a1,1,0,0,1,.765.4,1.586,1.586,0,0,1,.345,1.065,1.6,1.6,0,0,1-.885,1.365A3.677,3.677,0,0,1,296.44,30a5.816,5.816,0,0,1-3.135-.8q-1.275-.8-1.275-3.375V17.55h-1.38a1.64,1.64,0,0,1-1.68-1.68,1.543,1.543,0,0,1,.48-1.155,1.656,1.656,0,0,1,1.2-.465h1.38V12.33a1.794,1.794,0,0,1,1.83-1.83,1.687,1.687,0,0,1,1.26.525,1.8,1.8,0,0,1,.51,1.305v1.92h2.13a1.641,1.641,0,0,1,1.68,1.68,1.543,1.543,0,0,1-.48,1.155,1.656,1.656,0,0,1-1.2.465h-2.13v8.13a1.148,1.148,0,0,0,.33.915,1.331,1.331,0,0,0,.9.285,2.574,2.574,0,0,0,.66-.12A1.792,1.792,0,0,1,298.21,26.61Zm4.2.9a1.458,1.458,0,0,1-.27-.9,1.706,1.706,0,0,1,1.65-1.59,1.692,1.692,0,0,1,1.2.57,6.327,6.327,0,0,0,1.875,1.38,5.59,5.59,0,0,0,2.355.45q2.34-.09,2.34-1.77a1.434,1.434,0,0,0-.8-1.32,11.22,11.22,0,0,0-2.475-.9,21.454,21.454,0,0,1-2.835-.96,5.016,5.016,0,0,1-1.89-1.455,4.031,4.031,0,0,1-.795-2.625,3.972,3.972,0,0,1,.825-2.505,5.43,5.43,0,0,1,2.16-1.65,6.986,6.986,0,0,1,2.835-.585,8.713,8.713,0,0,1,3.06.57,5.322,5.322,0,0,1,2.4,1.68,1.668,1.668,0,0,1,.39,1.08,1.393,1.393,0,0,1-.57,1.14,1.511,1.511,0,0,1-.96.33,1.462,1.462,0,0,1-1.08-.42,3.811,3.811,0,0,0-1.395-1.05,4.613,4.613,0,0,0-1.935-.39q-2.28,0-2.28,1.65a1.412,1.412,0,0,0,.42,1.065,2.87,2.87,0,0,0,1.065.63q.645.225,1.815.555a19.838,19.838,0,0,1,2.7.93,4.634,4.634,0,0,1,1.83,1.47,4.212,4.212,0,0,1,.75,2.61,4,4,0,0,1-.87,2.565A5.507,5.507,0,0,1,311.7,29.73a7.214,7.214,0,0,1-2.8.57,10.16,10.16,0,0,1-3.69-.66A6.132,6.132,0,0,1,302.41,27.51Z" transform="translate(-0.4 11.2)" fill="#efeff4"/>
  </g>
</svg>
