<svg id="mood-logo" xmlns="http://www.w3.org/2000/svg" width="260" height="180" viewBox="0 0 260 180">
  <rect id="padding" width="260" height="180" transform="translate(0 0)" fill="none"/>
  <g id="Mood_Logo_White" data-name="Mood Logo White" transform="translate(36.266 26) rotate(6.024)">
    <path id="Path_16" data-name="Path 16" d="M50.5,44.55c-.626,1.564-1.29,3.108-1.869,4.686-.924,2.51-1.835,5.025-2.672,7.566-.8,2.422-1.5,4.875-2.228,7.322-.76,2.565-1.527,5.128-2.229,7.708-.712,2.621-1.357,5.261-2.019,7.9-.526,2.094-2.194,8.727-2.359,9.966-.379,2.831-2.5,5.048-4.948,5.037a4.78,4.78,0,0,1-4.4-5.54c.284-2.49.785-4.957,1.212-7.427.374-2.17.776-4.338,1.175-6.5.388-2.107.816-4.2,1.171-6.32q.489-2.89.844-5.8.433-3.49.759-6.992.257-2.829.367-5.67c.081-2.057.122-4.118.1-6.177a21.967,21.967,0,0,0-.489-4.362c-.158.248-.394.633-.669,1.1C27.9,48.423,25.66,56.7,24.907,69.814h0c-.111,1.338-2.692,31.653-5.832,35.94a5.776,5.776,0,0,1-2.715,2.085A4.949,4.949,0,0,1,12,106.971c-2.375-2.031-.427-7.857.2-10.6,0,0,4.626-16.582,5.261-41.609.058-2.249.071-6.141-1.575-6.791-1.729-.682-4.539,2.771-4.976,3.308A28.274,28.274,0,0,0,5.243,66.7c-.122,1.83-.139,4.743-1.785,5.6a2.174,2.174,0,0,1-1.684.124c-.367-.151-1.58-.82-1.7-5.7a31.414,31.414,0,0,1,1-8.593c1.223-4.862,1.906-7.57,3.962-10.741,1.532-2.365,3.732-5.759,7.729-6.862A8.611,8.611,0,0,1,18.866,41,6.617,6.617,0,0,1,21,43.163a6.991,6.991,0,0,0,.529.667c.393-.933.734-1.824,1.137-2.691.971-2.107,1.883-4.242,2.977-6.281a16.6,16.6,0,0,1,4.894-5.59c.217-.157,3.784-1.983,6.708-.3a5.718,5.718,0,0,1,1.309,1.076c1.791,1.832,2.288,4.025,2.793,6.391.195.908.367,2.026.618,4.272.122,1.092.142,2.2.377,3.334a5.8,5.8,0,0,0,.347-.663c2.356-6.3,3.023-7.649,4.947-9.825.931-1.053,2.268-2.567,4.316-2.775A6.645,6.645,0,0,1,57.6,33.637c.87,1.186,1.127,2.321.979,10.931-.047,2.84-.115,5.682-.245,8.52-.1,2.2-.336,4.391-.48,6.588-.141,2.156-.245,4.315-.357,6.474-.113,2.18-.236,4.36-.313,6.541a36.584,36.584,0,0,0,.553,9.836,2.238,2.238,0,0,0,2.958,1.34.608.608,0,0,0,.236-.5,18.38,18.38,0,0,1-.277-1.887,39.7,39.7,0,0,1,.16-5.023,20.96,20.96,0,0,1,1.083-4.03,28.575,28.575,0,0,1,1.476-3.449,27.287,27.287,0,0,1,2.047-3.637,49.8,49.8,0,0,1,3.826-4.784,39.567,39.567,0,0,1,3.793-3.454,8.092,8.092,0,0,1,5.506-1.983c1.729.043,2.965,2.134,3.286,3.8.23,1.192-.245,2.378-1.184,4.749a12.528,12.528,0,0,1-2.407,3.675,1.085,1.085,0,0,1-.1.084c-.122.069-.28.1-.41.161a2.013,2.013,0,0,1-.059-.62c.31-1.371.652-2.726.964-4.1a8.646,8.646,0,0,0,.106-1.07c-3.312,1.927-10.168,15.033-9.157,18.18a27.285,27.285,0,0,0,7.023-4.585.535.535,0,0,1,.384.166q.847.991-5.039,7.845a4.981,4.981,0,0,0,1.43.61,5.411,5.411,0,0,0,3.2-.228,23.5,23.5,0,0,0,9.309-6.664,27.911,27.911,0,0,0,2.029-2.5,34.3,34.3,0,0,0,2.673-4.6,14.558,14.558,0,0,0,1.3-4.294.851.851,0,0,0-.136-.713c-.329-.316-.979.124-2.2.434a5.687,5.687,0,0,1-3.089.093,2.965,2.965,0,0,1-1.189-.595,3.609,3.609,0,0,1-.952-3.041,4.527,4.527,0,0,1,1.216-2.326,8.282,8.282,0,0,1,4.151-2.462,8.592,8.592,0,0,1,6.572.736,7.988,7.988,0,0,1,2.222,2.019,9.8,9.8,0,0,1,1.992,4.975,53.859,53.859,0,0,1,7.307-6.833c3.981-3.078,7.348-5.615,12.13-6.089a11.129,11.129,0,0,1,5.917.76,11.946,11.946,0,0,1,4.562,3.911,15.03,15.03,0,0,1,3.385,6.791c.1.483,1.112.543,1.468.047,1.39-1.962,1.252-3.989.356-6.106a9,9,0,0,0-5.128-5.1,10.719,10.719,0,0,1-2-.907c-.4-.269-.933-.851-.876-1.207a2,2,0,0,1,1.051-1.252c1.285-.59,2.635-.248,3.966-.027a.85.85,0,0,0,.71-.268q2.389-3.732,4.72-7.5c1.243-2,2.519-3.987,3.678-6.039,1.117-1.983,2.139-4.018,3.133-6.065a50.523,50.523,0,0,0,2.071-4.735c1.03-2.819,2-5.667,1.691-8.767-.263-2.667-1.821-4.185-4.175-5.115a23.784,23.784,0,0,0-9.7-1.444c-2.414.081-4.838.035-7.241.238-2.3.195-4.6.581-6.877.991-2.319.414-4.632.892-6.919,1.46-2.188.543-4.358,1.175-6.5,1.881-2.08.688-4.139,1.476-6.175,2.3-1.943.786-3.887,1.588-5.75,2.537-2.4,1.218-4.772,2.5-7.047,3.929a35.329,35.329,0,0,0-4.857,3.718,55.126,55.126,0,0,0-5.086,5.216,21.441,21.441,0,0,0-2.7,4.245,21.756,21.756,0,0,0-2.372,9.262c0,.165-.007.33,0,.5.042,1.79-1.336,2.669-2.908,1.8a5.423,5.423,0,0,1-1.1-.8,6.609,6.609,0,0,1-1.661-2.883,9.786,9.786,0,0,1-.385-3.629,21.643,21.643,0,0,1,3.193-9.419,32.749,32.749,0,0,1,2.962-4.289,38.338,38.338,0,0,1,3.273-3.567,42.691,42.691,0,0,1,3.848-3.408c1.812-1.387,3.7-2.682,5.612-3.925a66.835,66.835,0,0,1,5.914-3.56c2.769-1.415,5.6-2.726,8.477-3.894,2.845-1.15,5.777-2.081,8.687-3.072,1.591-.545,3.2-1.073,4.83-1.507,1.825-.487,3.67-.885,5.522-1.272,1.75-.372,3.5-.729,5.272-.979,1.969-.279,3.949-.5,5.933-.62a47.619,47.619,0,0,1,5.931-.063,60.324,60.324,0,0,1,6.328.835,23.046,23.046,0,0,1,3.511.983,16.2,16.2,0,0,1,2.736,1.192,15.338,15.338,0,0,1,5.743,5.173,14.015,14.015,0,0,1,2.2,7.079,30.414,30.414,0,0,1-.674,6.53,34.7,34.7,0,0,1-1.688,5.718c-.683,1.822-1.583,3.562-2.426,5.318a26.635,26.635,0,0,1-1.59,2.98c-1.167,1.8-2.366,3.583-3.65,5.3a36.8,36.8,0,0,1-2.936,3.377c-1.811,1.889-3.67,3.727-5.52,5.577-.367.362-.774.67-1.126,1.04a.519.519,0,0,0-.024.5,15.876,15.876,0,0,1,3.274,6.389,8.919,8.919,0,0,0,.963-.58,27.127,27.127,0,0,1,7.931-4.246,17.492,17.492,0,0,1,5.1-1.105,5.857,5.857,0,0,1,5.526,3.091,3.511,3.511,0,0,1,.378,1.2,4.507,4.507,0,0,1-.677,2.694c-2.06,3.966-3.921,4.975-4.557,5.162a.34.34,0,0,1-.3-.007c-.322-.248.415-1.529.979-3.346a16.868,16.868,0,0,0,.5-2.047c.049-.2.009-.362-.08-.4a.137.137,0,0,0-.1,0c-4.789,1.6-9.615,6.226-9.615,6.226-3.609,3.455-5.431,5.232-6.263,7.632-.619,1.788-.464,2.833-.065,3.541a3.749,3.749,0,0,0,2.484,1.641c5,1.414,12.317-1.939,13.912-6.32.845-2.325,1.264-4.81,1.878-7.221.092-.359.18-.72.283-1.077.215-.744.56-1.192,1.449-.444.169-.948.314-1.78.467-2.611.478-2.59,7.625-30.64,10.933-40.277,1.223-3.556,2.167-6.382,4.13-6.784a1.653,1.653,0,0,1,1.27.16c1.677,1.176.16,6.2.16,6.2s-1.439,6.208-2.991,12.557c-.8,3.261-1.646,6.508-2.44,9.768-.7,2.9-1.4,5.8-2.035,8.717-.525,2.413-.965,4.844-1.417,7.272-.429,2.308-.874,4.615-1.223,6.94,0,0-1.245,4.75-.783,6.809a2.4,2.4,0,0,0,.99,1.752c1.045.587,2.579-.311,4.094-1.223,2.512-1.511,3.181-2.741,4.909-2.767a2,2,0,0,1,1.431.421,2.866,2.866,0,0,1,.522,2.594,8.967,8.967,0,0,1-3.378,4.87,23.41,23.41,0,0,1-4.382,2.726,13.885,13.885,0,0,1-2.447.892,8.789,8.789,0,0,1-4.457.42,8.165,8.165,0,0,1-4.16-2.617s-.206-.255-.2-.255h0c-1.706,1.2-3.294,2.491-5.041,3.5a19.972,19.972,0,0,1-7.057,2.453,16.994,16.994,0,0,1-7.953-.419,11.649,11.649,0,0,1-5.564-3.2,11.444,11.444,0,0,1-2.586-4.709,2.961,2.961,0,0,0-.144-.538,25.083,25.083,0,0,1-2.255,2.62,56.752,56.752,0,0,1-5.391,4.4,36.727,36.727,0,0,1-5.506,3.034,29.445,29.445,0,0,1-4.94,1.72,21.886,21.886,0,0,1-5.086.851,19.172,19.172,0,0,1-4.631-.393,12.02,12.02,0,0,1-3.137-.991,10.552,10.552,0,0,1-4.707-4.567,9.836,9.836,0,0,1-.707-1.8.781.781,0,0,0-.193.014c-1.336,1.493-2.6,3.06-3.968,4.522-.333.356-.6.639-.91.948-.139.139-.541.518-.541.518h0a32.929,32.929,0,0,1-6.07,4.428,21.967,21.967,0,0,1-2.392,1.146,18.808,18.808,0,0,1-3.729,1.093,12.019,12.019,0,0,1-5.311.109A19.62,19.62,0,0,1,66.9,90.881c-1.257-.706-1.474-.773-2.606.116A19.119,19.119,0,0,1,60.1,93.547a8.846,8.846,0,0,1-5.252.5,8.261,8.261,0,0,1-2.682-1.115c-.68-.444-2.4-1.724-3.739-5.489C47.252,84.133,47.049,81.4,47.3,76.6c.122-2.383.2-4.771.406-7.146s.568-4.74.841-7.112c.245-2.107.447-4.214.688-6.32.343-3,.472-3.671.734-6.009S50.4,45.784,50.5,44.55Zm76.695,16.157a5.417,5.417,0,0,1-1.058,2.075,2.109,2.109,0,0,1-1.279.891,1.554,1.554,0,0,1-.781-.09,1.4,1.4,0,0,1-.727-1.942,7.265,7.265,0,0,0,.526-1.89c.066-.819-.06-1.346-.39-1.6-.289-.222-.778-.276-1.653.066C108.644,63.382,104.909,72.2,104.909,72.2c-1.591,2.642-1.91,5.3-.734,6.8.218.276.979,1.13,3.793,1.384a18.419,18.419,0,0,0,10.155-2.293,21.51,21.51,0,0,0,7.572-6.462,13.452,13.452,0,0,0,2.484-5.081c.934-4.139-.566-7.816-.757-7.791A11.406,11.406,0,0,1,127.193,60.707Z" transform="translate(-0.065 -0.014)" fill="#efeff4"/>
    <path id="Path_17" data-name="Path 17" d="M1511.744,512.708c.047.074.08.091.113.089.33-.027.845-2.882-.044-5.409-.491-1.391-1.284-2.347-1.118-2.472.129-.1.673.394,1.213.879a13.158,13.158,0,0,1,.976.976,10.831,10.831,0,0,1,2.806,5.958,8.131,8.131,0,0,1-.856,3.966,10.585,10.585,0,0,1-10.535,5.35c-2.568-.461-5.039-2.214-4.579-5.455a6.709,6.709,0,0,1,3.047-4.467,7.467,7.467,0,0,1,5.6-1.609,4.893,4.893,0,0,1,1.361.4,4.715,4.715,0,0,1,.633.355A4.942,4.942,0,0,1,1511.744,512.708Zm-6.029,4.942a2.685,2.685,0,0,0,1.979-.512c.331-.273.949-.943.736-1.47-.173-.428-.792-.525-1-.558a2.8,2.8,0,0,0-2.1.739c-.143.125-.306.285-.343.322a5.986,5.986,0,0,0-.7.856,3.271,3.271,0,0,0,1.427.618Z" transform="translate(-1315.372 -443.859)" fill="#efeff4"/>
    <path id="Path_18" data-name="Path 18" d="M522.92,403.044a9.977,9.977,0,0,1,4.037-6.838,16.062,16.062,0,0,1,8.351-3.51,7.434,7.434,0,0,1,4.946.863,3.872,3.872,0,0,1,1.719,1.87,1.451,1.451,0,0,1,.067,1.217,1.525,1.525,0,0,1-1.324.512,14.519,14.519,0,0,0-14.221,6.524,6.672,6.672,0,0,1-1.151,1.248c-1.077.917-2,.578-2.292-.818C522.977,403.746,522.958,403.369,522.92,403.044Z" transform="translate(-458.822 -344.806)" fill="#efeff4"/>
  </g>
</svg>
