<svg id="person-icon" xmlns="http://www.w3.org/2000/svg" width="40" height="40" viewBox="0 0 40 40">
  <path id="person" d="M24,3a10.679,10.679,0,0,0-10.91,10.435v1.739A10.679,10.679,0,0,0,24,25.609a10.679,10.679,0,0,0,10.91-10.435V13.435A10.679,10.679,0,0,0,24,3Zm-7.1,28.787c-5.337,1.334-10.371,3.845-12.227,6.155A3.149,3.149,0,0,0,7.324,43h33.35a3.151,3.151,0,0,0,2.646-5.061c-1.856-2.31-6.889-4.818-12.224-6.151a11.259,11.259,0,0,1-14.191,0Z" transform="translate(-4 -3)" fill="#efeff4"/>
</svg>
