<svg id="twitter-icon" xmlns="http://www.w3.org/2000/svg" width="49.223" height="40" viewBox="0 0 49.223 40">
  <path id="twitter-icon-2" data-name="twitter-icon" d="M51.222,9.171a20.159,20.159,0,0,1-5.8,1.59,10.115,10.115,0,0,0,4.439-5.587,20.248,20.248,0,0,1-6.414,2.452,10.1,10.1,0,0,0-17.468,6.908,10.211,10.211,0,0,0,.261,2.3A28.668,28.668,0,0,1,5.426,6.282,10.117,10.117,0,0,0,8.551,19.765,10.078,10.078,0,0,1,3.977,18.5v.127a10.1,10.1,0,0,0,8.1,9.9,10.1,10.1,0,0,1-2.662.354,10.281,10.281,0,0,1-1.9-.18,10.111,10.111,0,0,0,9.433,7.014A20.254,20.254,0,0,1,4.409,40.042,20.29,20.29,0,0,1,2,39.9a28.589,28.589,0,0,0,15.48,4.536c18.575,0,28.73-15.387,28.73-28.732q0-.656-.028-1.306A20.549,20.549,0,0,0,51.222,9.171Z" transform="translate(-1.999 -4.436)" fill="#efeff4"/>
</svg>
