<svg id="youtube-icon" xmlns="http://www.w3.org/2000/svg" width="40" height="40" viewBox="0 0 40 40">
  <path id="youtube-icon-2" data-name="youtube-icon" d="M10.207,3l3.228,10.731V18.88H16.23V13.731L19.5,3H16.685L15.513,7.884q-.494,2.139-.636,3.043h-.085q-.2-1.268-.636-3.063L13.027,3ZM22.761,7.05a4.434,4.434,0,0,0-2.294.52,3.045,3.045,0,0,0-1.285,1.657,9.072,9.072,0,0,0-.412,3.007v1.683a9.961,9.961,0,0,0,.362,2.971,2.891,2.891,0,0,0,1.211,1.648,4.469,4.469,0,0,0,2.354.533,4.416,4.416,0,0,0,2.315-.523A2.938,2.938,0,0,0,26.244,16.9a9.585,9.585,0,0,0,.38-2.981V12.234a9.4,9.4,0,0,0-.391-3A3.043,3.043,0,0,0,25,7.58,4.171,4.171,0,0,0,22.761,7.05Zm5.334.229v8.666a3.821,3.821,0,0,0,.6,2.366,2.212,2.212,0,0,0,1.85.755,2.925,2.925,0,0,0,2.713-1.608h.06l.249,1.419h2.219V7.279H32.949V16.49a1.416,1.416,0,0,1-1.215.742.652.652,0,0,1-.618-.333,2.4,2.4,0,0,1-.185-1.1V7.279ZM22.7,8.848a.843.843,0,0,1,.835.579,5.145,5.145,0,0,1,.234,1.824v3.615a5.263,5.263,0,0,1-.234,1.854.842.842,0,0,1-.831.569.826.826,0,0,1-.824-.569,5.4,5.4,0,0,1-.227-1.854V11.25a5.183,5.183,0,0,1,.238-1.824A.826.826,0,0,1,22.7,8.848ZM8.545,21.243A4.375,4.375,0,0,0,4,25.427V38.816A4.375,4.375,0,0,0,8.545,43H39.455A4.375,4.375,0,0,0,44,38.816V25.427a4.375,4.375,0,0,0-4.545-4.184ZM24.107,25.09h2.308v5.161h.018a2.4,2.4,0,0,1,.884-.9,2.363,2.363,0,0,1,1.236-.343,1.977,1.977,0,0,1,1.332.415,2.456,2.456,0,0,1,.7,1.343,11.946,11.946,0,0,1,.217,2.573v1.546a6.9,6.9,0,0,1-.572,3.22,1.91,1.91,0,0,1-1.79,1.033,2.654,2.654,0,0,1-1.232-.288,1.938,1.938,0,0,1-.831-.784h-.053l-.241.925H24.107Zm-14.318.5h7.1v1.775H14.508V38.989H12.164V27.362H9.788Zm25.334,3.426a3.582,3.582,0,0,1,1.893.412,2.249,2.249,0,0,1,.93,1.294,8.705,8.705,0,0,1,.266,2.429v1.68H34.206v.5a11.719,11.719,0,0,0,.06,1.412,1.286,1.286,0,0,0,.252.687.747.747,0,0,0,.589.216.76.76,0,0,0,.739-.382,3.092,3.092,0,0,0,.217-1.278l2.063.111a2.885,2.885,0,0,1,.018.353,2.479,2.479,0,0,1-.806,2.027,3.472,3.472,0,0,1-2.283.673,2.816,2.816,0,0,1-2.482-1.023,5.586,5.586,0,0,1-.71-3.164v-1.71a5.553,5.553,0,0,1,.739-3.22A2.9,2.9,0,0,1,35.122,29.013Zm-14.851.18h2.4v9.793h-.007v0H20.786l-.206-1.2h-.053a2.469,2.469,0,0,1-2.29,1.36,1.864,1.864,0,0,1-1.563-.637,3.215,3.215,0,0,1-.5-2V29.2h2.4v7.191a2.045,2.045,0,0,0,.156.935.547.547,0,0,0,.522.278,1.109,1.109,0,0,0,.6-.176,1.129,1.129,0,0,0,.426-.448Zm14.8,1.307a.725.725,0,0,0-.568.206,1.262,1.262,0,0,0-.241.68,11.94,11.94,0,0,0-.06,1.429v.7h1.751v-.7a11.133,11.133,0,0,0-.067-1.429,1.288,1.288,0,0,0-.249-.686A.73.73,0,0,0,35.072,30.5Zm-7.6.072a.961.961,0,0,0-.643.255,1.374,1.374,0,0,0-.415.654v5.56a1.018,1.018,0,0,0,.408.383,1.206,1.206,0,0,0,.547.131.768.768,0,0,0,.607-.255,1.7,1.7,0,0,0,.32-.863,11.382,11.382,0,0,0,.1-1.677V33.5a15.143,15.143,0,0,0-.078-1.775,1.912,1.912,0,0,0-.277-.886A.669.669,0,0,0,27.473,30.572Z" transform="translate(-4 -3)" fill="#efeff4"/>
</svg>
